<?xml version="1.0" encoding="UTF-8"?>
<!DOCTYPE svg PUBLIC "-//W3C//DTD SVG 1.1//EN" "http://www.w3.org/Graphics/SVG/1.1/DTD/svg11.dtd">
<svg xmlns="http://www.w3.org/2000/svg" xmlns:xlink="http://www.w3.org/1999/xlink"><defs>
        <path id="SVGID_1_" d="M0 0h9v15.9H0z"/>
    </defs><symbol id="icon-apple" viewBox="0 0 40 47.5">
    <path d="M39.2 37c-.7 1.7-1.6 3.2-2.6 4.6-1.3 1.9-2.4 3.2-3.3 4-1.3 1.2-2.7 1.8-4.2 1.9-1.1 0-2.4-.3-3.9-.9-1.5-.6-2.9-.9-4.2-.9-1.3 0-2.8.3-4.3.9-1.5.6-2.8.9-3.7 1-1.4.1-2.9-.6-4.3-1.9-.9-.8-2.1-2.2-3.4-4.1-1.5-2.1-2.7-4.5-3.6-7.2-1-3-1.5-5.8-1.5-8.6 0-3.2.7-5.9 2.1-8.2 1.1-1.8 2.5-3.3 4.3-4.4s3.7-1.6 5.8-1.7c1.1 0 2.7.4 4.5 1.1 1.9.7 3.1 1.1 3.6 1.1.4 0 1.7-.4 4-1.2 2.1-.8 3.9-1.1 5.4-1 4 .3 7 1.9 9 4.7-3.6 2.2-5.3 5.2-5.3 9.1 0 3 1.1 5.6 3.3 7.6 1 .9 2.1 1.6 3.3 2.2-.5.5-.7 1.2-1 1.9zM30 1c0 2.4-.9 4.6-2.6 6.6-2.1 2.4-4.6 3.8-7.3 3.6 0-.3-.1-.6-.1-.9 0-2.3 1-4.7 2.8-6.7.9-1 2-1.9 3.4-2.5C27.6.4 28.8.1 30 0v1z"/>
</symbol><symbol id="icon-arrow-small" viewBox="0 0 8 14">
    <path d="M1 13.7L.3 13l6-6-6-6L1 .3 7.7 7z"/>
</symbol><symbol id="icon-arrow" viewBox="0 0 11.2 21">
    <path d="M.5 21c-.1 0-.3 0-.4-.1-.2-.2-.2-.5 0-.7l9.6-9.6L.1.9C0 .7 0 .3.1.1s.5-.2.7 0l10.4 10.4L.9 20.9c-.1.1-.3.1-.4.1z"/>
</symbol><symbol id="icon-calendar" viewBox="0 0 40 40">
    <path d="M0 12h40v1H0z"/>
    <path d="M0 4h40v1H0z"/>
    <path d="M31 0h1v8h-1z"/>
    <path d="M39 4h1v8h-1z"/>
    <path d="M0 4h1v8H0z"/>
    <path d="M8 0h1v8H8z"/>
    <path d="M40 40H0V16h40v24zM1 39h38V17H1v22z"/>
</symbol><symbol id="icon-clock" viewBox="0 0 41 41">
    <path d="M20.5 41C9.2 41 0 31.8 0 20.5S9.2 0 20.5 0 41 9.2 41 20.5 31.8 41 20.5 41zm0-40C9.7 1 1 9.7 1 20.5S9.7 40 20.5 40 40 31.3 40 20.5 31.3 1 20.5 1z"/>
    <path d="M20 4.8h1v18h-1z"/>
    <path d="M18.095 18.733l.707-.708 8.273 8.274-.707.707z"/>
</symbol><symbol id="icon-eat" viewBox="0 0 60.6 40">
    <path d="M20 40C9 40 0 31 0 20S9 0 20 0s20 9 20 20-9 20-20 20zm0-39C9.5 1 1 9.5 1 20s8.5 19 19 19 19-8.5 19-19S30.5 1 20 1z"/>
    <path d="M20 34.8c-8.2 0-14.8-6.6-14.8-14.8S11.8 5.2 20 5.2 34.8 11.8 34.8 20 28.2 34.8 20 34.8zm0-28.6C12.4 6.2 6.2 12.4 6.2 20c0 7.6 6.2 13.8 13.8 13.8S33.8 27.6 33.8 20c0-7.6-6.2-13.8-13.8-13.8z"/>
    <path d="M56.1 25c1.9 0 3.5 1.5 3.5 3.4 0 2.2-1.9 6.6-3.5 6.6s-3.5-4.3-3.5-6.6c0-1.9 1.6-3.4 3.5-3.4m0-1c-2.5 0-4.5 2-4.5 4.4s2 7.6 4.5 7.6 4.5-5.1 4.5-7.6-2-4.4-4.5-4.4z"/>
    <path d="M47.1 12.5c-2.8 0-5-2.2-5-4.9V3h1v4.6c0 2.2 1.8 3.9 4 3.9s4-1.7 4-3.9V3h1v4.6c0 2.7-2.2 4.9-5 4.9z"/>
    <path d="M55.6 3h1v22h-1z"/>
    <path d="M46.6 3h1v34h-1z"/>
</symbol><symbol id="icon-fb" viewBox="0 0 9 15.9">
    <style>
        .st0{clip-path:url(#SVGID_2_)}
    </style>
    
    <clipPath id="SVGID_2_">
        <use xlink:href="#SVGID_1_" overflow="visible"/>
    </clipPath>
    <path class="st0" d="M8.7 0H6.5c-2.4 0-4 1.5-4 3.9v1.8H.3c-.1.1-.3.2-.3.4v2.6c0 .2.2.3.3.3h2.2v6.6c0 .2.2.3.3.3h2.8c.3.1.4 0 .4-.2V9h2.5c.2 0 .3-.1.3-.3V6.1c0-.1 0-.2-.1-.2s-.1-.1-.1-.1H6V4.2c0-.7.2-1.1 1.2-1.1h1.5c.1 0 .3-.1.3-.3V.3c0-.2-.2-.3-.3-.3"/>
</symbol><symbol id="icon-free" viewBox="0 0 40 40">
    <path d="M23.5 40h-19C2 40 0 38 0 35.5v-31C0 2 2 0 4.5 0h19C26 0 28 2 28 4.5v31c0 2.5-2 4.5-4.5 4.5zM4.5 1C2.6 1 1 2.6 1 4.5v31C1 37.4 2.6 39 4.5 39h19c1.9 0 3.5-1.6 3.5-3.5v-31C27 2.6 25.4 1 23.5 1h-19z"/>
    <path d="M29.4 31.7l-.9-.5 10.1-17.4c.5-.8.6-1.7.3-2.7-.3-.9-.8-1.7-1.6-2.1l-8.5-5 .5-.9L37.9 8c1 .6 1.8 1.6 2.1 2.8.3 1.2.2 2.4-.4 3.4L29.4 31.7z"/>
    <path d="M7 18.5h14v1H7z"/>
    <path d="M7 14.5h14v1H7z"/>
    <path d="M7 22.5h10v1H7z"/>
</symbol><symbol id="icon-inst" viewBox="0 0 14 14">
    <circle cx="7" cy="7" r="2.4"/>
    <path d="M10.1 0H3.9C1.7 0 0 1.7 0 3.9v6.3C0 12.3 1.7 14 3.9 14h6.3c2.1 0 3.9-1.7 3.9-3.9V3.9C14 1.7 12.3 0 10.1 0zM7 10.6C5 10.6 3.4 9 3.4 7S5 3.4 7 3.4 10.6 5 10.6 7 9 10.6 7 10.6zm4.4-6.7c-.2.2-.4.3-.6.3-.2 0-.5-.1-.6-.3-.3-.2-.4-.4-.4-.6 0-.2.1-.5.3-.6.2-.2.4-.3.6-.3.2 0 .5.1.6.3.2.2.3.4.3.6.1.2 0 .4-.2.6z"/>
</symbol><symbol id="icon-love" viewBox="0 0 50 40.9">
    <path d="M25.3 40.9L6.8 27.8c-.3-.2-.3-.3-.4-.4l-.5-.3C2.1 24.2 0 19.8 0 15.1 0 6.8 6.8 0 15.1 0c3.6 0 7.1 1.3 9.9 3.7C27.8 1.3 31.3 0 34.9 0 43.2 0 50 6.8 50 15.1c0 4.7-2.2 9.3-6 12.2L25.3 40.9zM15.1 1C7.3 1 1 7.3 1 15.1c0 4.4 2 8.5 5.5 11.2l.4.3c.2.1.3.2.6.4l17.8 12.6 18.1-13.2c3.5-2.7 5.6-7 5.6-11.4 0-7.7-6.3-14-14.1-14-3.5 0-6.9 1.3-9.6 3.8l-.3.3-.3-.3C22 2.3 18.6 1 15.1 1z"/>
    <path d="M33.1 31.8l-8.5-6.6-8.5 6.6 3.5-10.1-8.5-6.6h10.7L24.6 6l2.7 9.2h10.8l-8.5 6.6 3.5 10zM24.6 24l6.5 5-2.7-7.5 6.7-5.2h-8.6l-1.9-6.6-2 6.6h-8.5l6.7 5.2-2.7 7.5 6.5-5z"/>
</symbol><symbol id="icon-master_card" viewBox="0 0 42 24.9">
    <style>
        .st0{fill:#fff}
    </style>
    <path class="st0" d="M16.8 11.1l.2-1h-.4c-.1 1-.2 1.5-.2 2.3v.5l.2-.7h.6c0-1 0-1 .1-1h-.5z"/>
    <path class="st0" d="M17 15.3l.2-.9h-.1c-.1 0-.2.1-.3.1h-.2-.1c0 .3.1.6.2.9.1-.1.2-.1.3-.1z"/>
    <path class="st0" d="M24.8 12.2c0-.6.5-1.2.4-1.2h-.6c.2.4.2.8.2 1.2z"/>
    <path class="st0" d="M25.5 11.1l-.3.6c-.2.5-.2 1-.2 1.5 0 .6.1 1.1.4 1.4.1-.7.2-1.4.2-2.2 0-.4 0-.9-.1-1.3z"/>
    <path class="st0" d="M16.2 13.8v.3c0 .2 0 .3.1.3s.2.1.3.1c-.1-.6-.1-1.1-.2-1.7l-.1.7c-.1.1-.1.2-.1.3z"/>
    <path class="st0" d="M16.1 15.4c-.4 0-.7-.1-.9-.2-.2-.2-.3-.4-.3-.7v-.2-.4l.8-3.8h.9c.5-3 1.8-5.3 3.8-7.2-2.2-1.9-5-2.9-8-2.9C5.6 0 0 5.6 0 12.4s5.6 12.4 12.4 12.4c3 0 5.8-1.1 8-2.9-1.8-1.8-3.1-4-3.7-6.6h-.1c-.2.1-.3.1-.5.1zm-11.4-.3l.8-3.7-1.6 3.7h-1l-.2-3.9-.8 3.9H.7l1.2-5h1.5l.5 3.3 1.7-3.3h1.5l-1.2 5H4.7zm4.7 0l.1-.3-.3.3c-.1 0-.1.1-.2.1s-.1.1-.1.1c-.1.1-.2.1-.4.1-.1 0-.3.1-.5.1-.3 0-.6-.1-.8-.3-.1-.3-.2-.5-.2-.8 0-.3.1-.6.2-.9.1-.2.4-.4.6-.6l.9-.3H9c.3 0 .6-.1.9-.1v-.1-.1c0-.2-.1-.2-.2-.3-.2-.1-.4 0-.7 0-.2 0-.4-.1-.6 0-.2.1-.4 0-.5 0h-.1l.2-1c.1 0 .4-.1.7-.1.1 0 .3 0 .4-.1h.5c.6 0 1 .1 1.3.3.3.2.4.4.4.8V12.2l-.6 2.8H9.4zm4.6-2.3c.6.2.7.8.6 1.3-.1.4-.1 1.3-2 1.3-1 0-1.6-.1-1.6-.1l.2-1s1.3.3 1.6.1c.3-.2.7-.5.1-.7-.6-.2-1.5-.5-1.5-1.3s.4-1.2 1-1.5c.6-.2 1.6-.2 2.4-.1l-.2 1h-1.1s-.6.1-.6.3c.1.3.5.5 1.1.7z"/>
    <path class="st0" d="M9 13.4c-.1 0-.2.1-.3.1-.1.1-.2.1-.3.2-.1.1-.1.2-.1.4 0 .1.1.3.1.3.1.1.2.1.4.1H9c.1 0 .1 0 .2-.1s.3-.1.4-.2l.2-.9c-.2 0-.4 0-.6.1H9z"/>
    <path class="st0" d="M29.6.1c-3 0-5.8 1.1-8 2.9 2.2 2.1 3.6 4.9 3.9 8.1.1-.2.2-.4.4-.6.3-.3.6-.6 1-.8.4-.2.8-.3 1.2-.3.3 0 .7 0 1 .1.1 0 .4.2.4.2l-.3 1.4c-.1-.2-.3-.3-.4-.4-.2-.1-.5-.2-.8-.2-.5 0-.9.2-1.2.7-.3.5-.5 1-.5 1.8 0 .5.1.8.3 1 .2.2.4.3.8.3.3 0 .6-.1.9-.2.1-.1.3-.1.4-.2l-.3 1.3s-.1.1-.2.1c-.2.1-.3.1-.5.1h-.6c-.7 0-1.2-.2-1.6-.6l-.2-.2c-.5 2.8-1.8 5.4-3.8 7.3 2.2 1.8 4.9 2.9 8 2.9 6.8 0 12.4-5.6 12.4-12.4S36.4.1 29.6.1zm3.7 12.1l-.6 2.9h-1.2l.1-.3-.3.3-.2.1s-.1.1-.2.1c-.1.1-.2.1-.4.1-.1 0-.3.1-.5.1-.3 0-.6-.1-.8-.3-.2-.2-.3-.5-.3-.8 0-.3.1-.6.2-.9.1-.2.4-.4.6-.6l.9-.3h.3c.3 0 .6-.1.9-.1v-.1-.1c0-.2-.1-.2-.2-.3-.2-.1-.4 0-.7 0h-.1c-.2 0-.4-.1-.6 0-.2.1-.4 0-.5 0h-.1l.2-1c.1 0 .4-.1.7-.1.1 0 .3 0 .4-.1h.5c.6 0 1 .1 1.3.3.3.2.4.4.4.8.2.1.2.2.2.3zm2 .1l-.6 2.8h-1.2l.9-4h1.2v.3c.2-.2.5-.4 1.1-.4 0 0-.4.6-.4 1.1-.3-.1-.9-.2-1 .2zm3.6 2.8l.1-.3-.3.3c-.1.1-.2.2-.3.2-.1 0-.2.1-.3.1h-.4c-.4 0-.7-.1-.9-.4-.2-.3-.3-.7-.3-1.2 0-.4 0-.8.2-1.2.1-.4.3-.7.5-1 .2-.3.4-.9.7-1.1.3-.2.5-.7.8-.7.2 0 .4.4.5.5.2 0 .3.5.5.6l.3-1.1h1.2l-1.1 5h-1.2z"/>
    <path class="st0" d="M39 11.9c-.1 0-.2 0-.4.1-.1 0-.1.1-.2.1-.2.1-.3.2-.4.4-.1.2-.2.3-.2.6-.1.2-.1.5-.1.7 0 .3.1.4.2.6.1.1.3.2.5.2H38.7c.1-.1.2-.1.3-.2l.4-2.1c-.1 0-.2-.1-.3-.1.1-.3 0-.3-.1-.3z"/>
    <path class="st0" d="M31.1 13.4c-.1 0-.2.1-.3.1-.1.1-.2.1-.3.2-.1.1-.1.2-.1.4 0 .1.1.3.2.3.1.1.2.1.4.1h.2c.1 0 .1 0 .2-.1s.3-.1.4-.2l.2-.9c-.2 0-.4 0-.6.1h-.3z"/>
    <path class="st0" d="M21 21.4c2.3-2.3 3.8-5.4 3.8-8.9v-.3c-.3-.1-.8-.2-.9.1l-.6 2.8H22l.9-4h1.2v.3c.2-.1.3-.2.6-.3-.3-3-1.7-5.6-3.7-7.5-2 1.9-3.4 4.5-3.7 7.5h.6l-.2 1h-.5v.5c0 3.4 1.5 6.5 3.8 8.8zm-2.9-9.7c.2-.2.5-.4.8-.6.2-.1.5-.2.7-.2h.3c.6 0 1 .1 1.3.4.3.3.4.6.4 1.2v.8c0 .2-.1-.2-.1.8H19v-.6c0 .3-.1.8.1 1 .2.1.2.6.5.6h.2c.3 0 .5-.3.8-.4.2-.1.4-.6.6-.6h.1l-.2 1.1c-.2.1-.5 0-.7.1-.2.1-.5-.1-.7-.1h-.1c-.7 0-1.2 0-1.5-.3-.4-.3-.5-.7-.5-1.2 0-.4.1-.7.2-1 0-.6.1-.8.3-1z"/>
    <path class="st0" d="M20.4 12.9v-.3-.2c0-.2-.1-.4-.2-.5-.1-.1-.3-.2-.5-.2h-.2c-.2 0-.3.3-.4.4-.2.2-.3 0-.4.8H20.4z"/>
</symbol><symbol id="icon-mobile" viewBox="0 0 28 40">
    <path d="M22.5 40h-17C2.4 40 0 37.6 0 34.5v-29C0 2.4 2.4 0 5.5 0h17C25.6 0 28 2.4 28 5.5v29c0 3-2.5 5.5-5.5 5.5zM5.5 1C3 1 1 3 1 5.5v29C1 37 3 39 5.5 39h17c2.4 0 4.5-2.1 4.5-4.5v-29C27 3 25 1 22.5 1h-17z"/>
    <path d="M14.3 37.5c-1.9 0-3.5-1.6-3.5-3.5s1.6-3.5 3.5-3.5 3.5 1.6 3.5 3.5-1.6 3.5-3.5 3.5zm0-6c-1.4 0-2.5 1.1-2.5 2.5s1.1 2.5 2.5 2.5 2.5-1.1 2.5-2.5-1.1-2.5-2.5-2.5z"/>
</symbol><symbol id="icon-money" viewBox="0 0 40 40">
    <path d="M29.7 33.7c-3.7 0-7.1-1.3-7.3-1.4l.4-.9c.1 0 6.9 2.7 11.2.5 1.6-.8 2.7-2.2 3.2-4.2 1.1-5.3-6.7-7.9-6.8-7.9l-.4-.1c-.1 0-9-2.4-7.7-8.6.6-2.3 1.8-3.9 3.7-4.9 4.7-2.4 11.6.3 11.9.4l-.4.9c-.1 0-6.8-2.6-11.1-.5-1.6.8-2.7 2.2-3.2 4.2-1.1 5.3 6.9 7.4 6.9 7.4l.5.1c.4.1 8.8 2.9 7.5 9.1-.6 2.3-1.8 3.9-3.7 4.9-1.4.7-3.1 1-4.7 1z"/>
    <path d="M29 0h1v6h-1z"/>
    <path d="M8 13h1v17H8z"/>
    <path d="M0 21h17v1H0z"/>
    <path d="M29 33h1v7h-1z"/>
</symbol><symbol id="icon-pay_pal" viewBox="0 0 44 12.4">
    <style>
        .st0{fill:#fff}
    </style>
    <path class="st0" d="M36.7 7.5c-.2.1-.3.2-.5.3-.2.1-.5.2-.7.2-.3 0-.6 0-.8-.1-.2-.1-.3-.3-.3-.5 0-.3.1-.5.2-.7.1-.2.3-.3.6-.4.2-.1.5-.1.9-.2.3 0 .9-.1 1-.1.1 0 .1 0 .1.2 0 .1-.2.8-.3 1.1 0 0-.1.2-.2.2zm2.3-5c-.5-.3-1.3-.4-2.4-.4-.5 0-1.1 0-1.6.1-.4.1-.4.1-.7.1-.5.1-.6.6-.6.6l-.2.7c.1.4.3.4.4.4.2-.1.3-.1.8-.2.4-.1.9-.2 1.2-.2.5 0 .9.1 1.2.2.3.1.4.3.4.6v.2c0 .1-.1.1-.2.1-.8 0-1.3.1-1.9.2-.6.1-1.2.2-1.7.5-.5.2-.9.5-1.1.9-.3.4-.4.8-.4 1.4 0 .5.2.9.5 1.3.4.3.8.5 1.4.5.4 0 .6 0 .8-.1.2 0 .4-.1.6-.2.2-.1.4-.2.5-.3.2-.1.3-.2.5-.3v.2c-.1.3.1.5.4.5h1.2c.3 0 .5-.2.6-.5l1-4.2c0-.1 0-.2.1-.3V4c0-.8-.3-1.2-.8-1.5"/>
    <path class="st0" d="M22.4 2.2c-.3 0-.7.2-.8.5 0 0-1.9 3.3-2.1 3.6-.1.2-.2.1-.2 0s-.6-3.6-.6-3.6c-.1-.3-.4-.5-.7-.5h-1.2c-.3 0-.5.2-.4.5 0 0 .9 5.2 1.1 6.4.1.7 0 .8 0 .8L16.3 12c-.2.3-.1.5.2.5h1.4c.3 0 .7-.2.8-.5L24 3s.5-.8 0-.8h-1.6"/>
    <path class="st0" d="M8.7 1.3C8.5 1 8.3.7 8 .6 7.6.3 7.3.2 6.8.1 6.4 0 5.9 0 5.3 0H2.5c-.3 0-.6.2-.6.5L0 8.7c-.1.3.1.5.4.5h1.3c.3 0 .6-.2.6-.5l.5-2c.1-.3.3-.5.6-.5h.4c1.6 0 2.9-.3 3.8-1 .9-.7 1.3-1.5 1.3-2.6 0-.5 0-.9-.2-1.3M5.8 4c-.4.3-.9.4-1.6.4h-.4c-.3 0-.5-.2-.4-.5l.4-1.7c.1-.3.3-.5.6-.5h.4c.5 0 .9.1 1.1.3.3.2.4.4.4.8.1.5-.1.9-.5 1.2"/>
    <path class="st0" d="M32.7 1.3c-.2-.3-.4-.6-.7-.8-.3-.2-.7-.3-1.1-.4-.5-.1-1.1-.1-1.7-.1h-2.8c-.3 0-.6.2-.6.5L24 8.7c-.1.3.1.5.4.5h1.3c.3 0 .6-.2.6-.5l.4-2c.1-.3.3-.5.6-.5h.4c1.6 0 2.9-.3 3.8-1 .9-.7 1.3-1.5 1.3-2.6.1-.5 0-.9-.1-1.3M29.8 4c-.4.3-1 .4-1.7.4h-.3c-.3 0-.5-.2-.4-.5l.4-1.7c.1-.3.3-.5.6-.5h.4c.5 0 .9.1 1.1.3.3.2.4.4.4.8.1.5-.1.9-.5 1.2"/>
    <path class="st0" d="M12.7 7.5c-.2.1-.3.2-.5.3-.2.1-.5.2-.7.2-.3 0-.6 0-.8-.1-.2-.1-.3-.3-.3-.5 0-.3.1-.5.2-.7.1-.2.3-.3.6-.4.2-.1.5-.1.9-.2.3 0 .9-.1 1-.1.1 0 .1 0 .1.2 0 .1-.2.8-.3 1.1 0 0-.1.2-.2.2zm2.4-5c-.5-.3-1.3-.4-2.4-.4-.5 0-1.1 0-1.6.1-.4.1-.4.1-.7.1-.5.1-.6.6-.6.6l-.1.7c-.1.4.1.4.2.4.2-.1.3-.1.8-.2.4-.1.9-.2 1.2-.2.5 0 .9.1 1.2.2.3.1.4.3.4.6v.2c0 .1-.1.1-.2.1-.8 0-1.3.1-1.9.2-.6.1-1.2.2-1.7.4-.5.3-.9.6-1.1 1-.3.3-.4.8-.4 1.3s.2.9.5 1.3c.4.3.8.5 1.4.5.4 0 .6 0 .8-.1.2-.1.4-.1.6-.2.3-.1.5-.2.6-.3.2-.1.3-.2.5-.3v.2c-.1.3.1.5.4.5h1.2c.3 0 .5-.2.6-.5l1-4.2v-.3-.3c0-.7-.2-1.1-.7-1.4"/>
    <path class="st0" d="M43.6.1h-1.2c-.3 0-.5.2-.6.5 0 0 0 .1-.1.4l-1.6 7.4c-.1.1-.1.3-.1.3-.1.3.1.5.4.5h1.2c.3 0 .5-.2.6-.5L44 .6c0-.3-.1-.5-.4-.5"/>
</symbol><symbol id="icon-piin" viewBox="0 0 30 40.1">
    <path d="M15 40.1l-.3-.3C14.1 39.4 0 28 0 15.1 0 6.8 6.7 0 15 0s15 6.8 15 15.1c0 12.8-14.1 24.3-14.7 24.8l-.3.2zM15 1C7.3 1 1 7.3 1 15.1c0 11.4 11.9 22 14 23.7 2.1-1.8 14-12.5 14-23.7C29 7.3 22.7 1 15 1z"/>
    <path d="M15 19.7c-2.9 0-5.3-2.4-5.3-5.4 0-3 2.4-5.4 5.3-5.4s5.3 2.4 5.3 5.4c0 3-2.4 5.4-5.3 5.4zm0-9.8c-2.4 0-4.3 2-4.3 4.4s1.9 4.4 4.3 4.4 4.3-2 4.3-4.4-1.9-4.4-4.3-4.4z"/>
</symbol><symbol id="icon-speak" viewBox="0 0 50 41">
    <path d="M0 41V17.4C0 7.8 8.3 0 18.4 0h13.9C42.2 0 50 7.7 50 17.5c0 10.1-8.1 18.6-17.7 18.6H6.4L0 41zM18.4 1C8.8 1 1 8.4 1 17.4V39l5-3.9h26.3C41.4 35.1 49 27 49 17.5 49 8.2 41.7 1 32.3 1H18.4z"/>
    <path d="M14.8 20.5c-1.7 0-3-1.3-3-3s1.3-3 3-3 3 1.3 3 3-1.3 3-3 3zm0-5c-1.1 0-2 .9-2 2s.9 2 2 2 2-.9 2-2-.9-2-2-2z"/>
    <path d="M25 20.5c-1.7 0-3-1.3-3-3s1.3-3 3-3 3 1.3 3 3-1.3 3-3 3zm0-5c-1.1 0-2 .9-2 2s.9 2 2 2 2-.9 2-2-.9-2-2-2z"/>
    <path d="M35.2 20.5c-1.7 0-3-1.3-3-3s1.3-3 3-3 3 1.3 3 3-1.3 3-3 3zm0-5c-1.1 0-2 .9-2 2s.9 2 2 2 2-.9 2-2-.9-2-2-2z"/>
</symbol><symbol id="icon-support_1" viewBox="0 0 40 40">
    <path d="M37 36h-1v-5h-5v-1h6z"/>
    <path d="M31.2 20.5H19.6V4h1v15.5h10.6z"/>
    <path d="M20 40C9 40 0 31 0 20h1c0 10.5 8.5 19 19 19 6.3 0 12.1-3.1 15.7-8.3l.8.6C32.8 36.7 26.6 40 20 40z"/>
    <path d="M40 20h-1C39 9.5 30.5 1 20 1 13.5 1 7.5 4.2 4 9.7l-.8-.6C6.9 3.4 13.2 0 20 0c11 0 20 9 20 20z"/>
    <path d="M37 36h-1v-5h-5v-1h6z"/>
    <path d="M9.1 10.1h-6v-6h1v5h5z"/>
</symbol><symbol id="icon-support_2" viewBox="0 0 40 40">
    <path d="M37 36h-1v-5h-5v-1h6z"/>
    <path d="M20 40C9 40 0 31 0 20h1c0 10.5 8.5 19 19 19 6.3 0 12.1-3.1 15.7-8.3l.8.6C32.8 36.7 26.6 40 20 40z"/>
    <path d="M40 20h-1C39 9.5 30.5 1 20 1 13.5 1 7.5 4.2 4 9.7l-.8-.6C6.9 3.4 13.2 0 20 0c11 0 20 9 20 20z"/>
    <path d="M37 36h-1v-5h-5v-1h6z"/>
    <path d="M9.1 10.1h-6v-6h1v5h5z"/>
    <path d="M15.1 29.1l-5.6-5.5.8-.8 4.8 4.9L32.9 9.8l.8.8z"/>
</symbol><symbol id="icon-vintage_logo" viewBox="0 0 70 15">
    <path d="M2.7.2H0l.6 2.5h2.8z"/>
    <path d="M12.4.2h2.8v14.6h-2.8z"/>
    <path d="M25 8.9L21.1.2H18v14.6h2.6V5.4l4.3 9.4h2.7V.2H25z"/>
    <path d="M38.7.2h-9.3v2.5h3.2v12.1h2.8V2.7h3.3z"/>
    <path d="M42.2.2l-3.6 14.6h2.7l.8-3.1H46l.7 3.1h2.7L45.8.2h-3.6zm.4 9.1L44 3.4l1.4 5.9h-2.8z"/>
    <path d="M55.2 2.5c1 0 1.7.6 1.7 2.5h2.8c-.1-3.3-1.6-5-4.5-5-2.7 0-4.6 1.3-4.6 4.9v5.2c0 3.6 1.9 4.9 4.6 4.9 1.1 0 1.9-.6 2.6-1.4l.4 1.2h1.5V7.3H55v2.3h2v.9c0 1.3-.6 2-1.7 2s-1.8-.4-1.8-2.1v-6c-.1-1.5.6-1.9 1.7-1.9z"/>
    <path d="M64.9 12.4V8.5h3.7V6h-3.7V2.7h4.9V.2h-7.7v14.6H70v-2.4z"/>
    <path d="M8 .2L4.3 14.8h2.6L10.6.2z"/>
</symbol><symbol id="icon-visa" viewBox="0 0 44 13.6">
    <style>
        .st0{fill:#fff}
    </style>
    <path class="st0" d="M5.7 0H0v.3C3.3.9 8 5.4 9.1 9L7.3 1.3C7.1.3 6.4 0 5.7 0z"/>
    <path class="st0" d="M32 .5c-.1 1-.3 1.9-.5 2.9-.8-.3-1.8-.7-3.2-.6-.8.1-1.8.3-1.8 1.1s1.4 1.3 2.1 1.7c1.4.7 2.8 1.5 2.9 3.3.1 1.4-.5 2.5-1.3 3.2-1.9 1.8-6.1 1.9-9 .8.2-.9.3-1.9.5-3 1.1.5 2.6 1.1 4.3.9.8-.1 1.7-.5 1.7-1.4 0-.9-1.8-1.5-2.7-2-1-.7-2.2-1.6-2.2-3-.1-.9.3-1.9.8-2.5C25.1.1 28.9-.5 32 .5z"/>
    <path class="st0" d="M15.5 13.4L17.7.3h3.6L19 13.4h-3.5z"/>
    <path class="st0" d="M12.5.3c-1.2 2.9-2.3 6-3.6 8.8l-.3-1.7.1.3c-.2-1-.7-1.9-1.3-2.6L7.3 5c-.1-.1-.2-.3-.3-.3-.1-.1-.1-.2-.2-.3-.9-.9-2.3-2.6-3.4-3.3L7 13.3h3.8c1.8-4.4 3.7-8.7 5.5-13.1-1.2.1-2.5.1-3.8.1z"/>
    <path class="st0" d="M44 13.4h-3.2c-.2-.6-.3-1.4-.5-2h-4.4l-.8 2h-3.7l4.8-11.2c.3-.5.6-1.2.8-1.4.3-.4 1.2-.5 1.6-.5h2.7L44 13.4zm-5.4-9.6l-1.8 4.9h3l-1.2-4.9z"/>
</symbol><symbol id="icon-vk" viewBox="0 0 24.1 14">
    <path d="M.5 2.9c.9 2 2.4 4.3 4.3 7.1.7.8 1.2 1.3 1.6 1.7.4.4.9.8 1.5 1.2.6.5 1.3.7 2.1.9s1.5.2 2.5.2h.7c.2 0 .4-.1.6-.3.2-.2.3-.4.4-.8l.2-1.5c.2-.5.4-.6.8-.6.4.1.7.2.9.5.3.5.8 1.1 1.5 1.8.8.7 1.5 1 2 1h3.9c.4 0 .5-.3.7-.6.1-.3 0-.7-.2-1.2-.6-.9-1.6-1.9-3.1-3.3-.7-.7-.5-1.5.4-2.6.7-.8 1.5-1.8 2.2-2.9.8-1.2 1-1.9.7-2.3-.2-.2-.3-.2-.4-.2h-4.4c-.4 0-.6 0-.7.1s-.2.2-.4.6c0 0-1.3 3.6-2.9 5-.4-.1-.4.1-.8.1-.5 0-.6-1.3-.6-1.8V3.7c.1-.5.1-.9.2-1.3.1-.5.1-.7.1-.9 0-.9-.6-1.4-1.8-1.4 0 0-.3 0-.9-.1s-.9 0-1.3 0C8.9 0 8 .3 7.8.9c1 .3 1.5 1.1 1.5 2.3 0 1.9-.1 2.9-.2 2.9-.2.8-.6.9-1.2.3C7 5.2 6 3.5 5 1.3 4.8.9 4.5.6 4.1.7H.7C.4.7.2.8 0 .9c0 .6.2 1.3.5 2z"/>
</symbol></svg>